{
  "accessors": [
    {
      "bufferView": 2,
      "componentType": 5126,
      "count": 1721,
      "max": [
        0.5483896136283875,
        -0.5304590463638306,
        1.2827849388122559
      ],
      "min": [
        -0.5484704375267029,
        -0.9694347977638245,
        1.0534403324127197
      ],
      "type": "VEC3"
    },
    {
      "bufferView": 2,
      "byteOffset": 20652,
      "componentType": 5126,
      "count": 1721,
      "max": [
        0.9678148031234741,
        0.9869804382324219,
        0.9999544620513916
      ],
      "min": [
        -0.968505859375,
        -0.9943541288375854,
        -0.9999998807907104
      ],
      "type": "VEC3"
    },
    {
      "bufferView": 1,
      "componentType": 5126,
      "count": 1721,
      "max": [
        0.99656742811203,
        0.986521303653717
      ],
      "min": [
        0.9333598613739014,
        0.8274523615837097
      ],
      "type": "VEC2"
    },
    {
      "bufferView": 0,
      "componentType": 5125,
      "count": 8064,
      "type": "SCALAR"
    },
    {
      "bufferView": 2,
      "byteOffset": 41304,
      "componentType": 5126,
      "count": 1721,
      "max": [
        0.5404078364372253,
        -0.5399251580238342,
        1.275907278060913
      ],
      "min": [
        -0.5404133796691895,
        -0.9624528884887695,
        1.059704065322876
      ],
      "type": "VEC3"
    },
    {
      "bufferView": 2,
      "byteOffset": 61956,
      "componentType": 5126,
      "count": 1721,
      "max": [
        0.9805623292922974,
        0.994491457939148,
        0.9999998807907104
      ],
      "min": [
        -0.9805235862731934,
        -0.9846115708351135,
        -0.9993169903755188
      ],
      "type": "VEC3"
    },
    {
      "bufferView": 1,
      "byteOffset": 13768,
      "componentType": 5126,
      "count": 1721,
      "max": [
        0.974987268447876,
        0.9789894223213196
      ],
      "min": [
        0.02125731110572815,
        0.04572078585624695
      ],
      "type": "VEC2"
    },
    {
      "bufferView": 0,
      "byteOffset": 32256,
      "componentType": 5125,
      "count": 8064,
      "type": "SCALAR"
    }
  ],
  "asset": {
    "extras": {
      "author": "Josevan Danusastra (https://sketchfab.com/JosevanD2)",
      "license": "CC-BY-4.0 (http://creativecommons.org/licenses/by/4.0/)",
      "source": "https://sketchfab.com/3d-models/joker-mask-persona-5-2c4a99ce4a764803b47849993cf2654b",
      "title": "Joker Mask Persona 5"
    },
    "generator": "Sketchfab-15.14.0",
    "version": "2.0"
  },
  "bufferViews": [
    {
      "buffer": 0,
      "byteLength": 64512,
      "name": "floatBufferViews",
      "target": 34963
    },
    {
      "buffer": 0,
      "byteLength": 27536,
      "byteOffset": 64512,
      "byteStride": 8,
      "name": "floatBufferViews",
      "target": 34962
    },
    {
      "buffer": 0,
      "byteLength": 82608,
      "byteOffset": 92048,
      "byteStride": 12,
      "name": "floatBufferViews",
      "target": 34962
    }
  ],
  "buffers": [
    {
      "byteLength": 174656,
      "uri": "scene.bin"
    }
  ],
  "extensionsUsed": [
    "KHR_materials_unlit"
  ],
  "images": [
    {
      "uri": "textures/mat_joker_mask_baseColor.png"
    }
  ],
  "materials": [
    {
      "extensions": {
        "KHR_materials_unlit": {}
      },
      "name": "mat_joker_mask",
      "pbrMetallicRoughness": {
        "baseColorTexture": {
          "index": 0
        },
        "metallicFactor": 0.0
      }
    }
  ],
  "meshes": [
    {
      "name": "outline_mat_joker_mask_0",
      "primitives": [
        {
          "attributes": {
            "NORMAL": 1,
            "POSITION": 0,
            "TEXCOORD_0": 2
          },
          "indices": 3,
          "material": 0,
          "mode": 4
        }
      ]
    },
    {
      "name": "mask_mat_joker_mask_0",
      "primitives": [
        {
          "attributes": {
            "NORMAL": 5,
            "POSITION": 4,
            "TEXCOORD_0": 6
          },
          "indices": 7,
          "material": 0,
          "mode": 4
        }
      ]
    }
  ],
  "nodes": [
    {
      "children": [
        1
      ],
      "matrix": [
        1.0,
        0.0,
        0.0,
        0.0,
        0.0,
        2.220446049250313e-16,
        -1.0,
        0.0,
        0.0,
        1.0,
        2.220446049250313e-16,
        0.0,
        0.0,
        0.0,
        0.0,
        1.0
      ],
      "name": "Sketchfab_model"
    },
    {
      "children": [
        2
      ],
      "matrix": [
        0.009999999776482582,
        0.0,
        0.0,
        0.0,
        0.0,
        0.0,
        0.009999999776482582,
        0.0,
        0.0,
        -0.009999999776482582,
        0.0,
        0.0,
        0.0,
        0.0,
        0.0,
        1.0
      ],
      "name": "4766f2aefa264ed8968df6490840f845.fbx"
    },
    {
      "children": [
        3
      ],
      "name": "RootNode"
    },
    {
      "children": [
        4,
        6
      ],
      "matrix": [
        1.0104172229766846,
        0.0,
        0.0,
        0.0,
        0.0,
        1.1640626519629855,
        -0.09946704591803235,
        0.0,
        0.0,
        0.11087983876055778,
        1.2976265452098228,
        0.0,
        0.0,
        -0.1809365153312683,
        -0.10413996875286102,
        1.0
      ],
      "name": "mask_joker"
    },
    {
      "children": [
        5
      ],
      "name": "outline"
    },
    {
      "mesh": 0,
      "name": "outline_mat_joker_mask_0"
    },
    {
      "children": [
        7
      ],
      "name": "mask"
    },
    {
      "mesh": 1,
      "name": "mask_mat_joker_mask_0"
    }
  ],
  "samplers": [
    {
      "magFilter": 9729,
      "minFilter": 9987,
      "wrapS": 10497,
      "wrapT": 10497
    }
  ],
  "scene": 0,
  "scenes": [
    {
      "name": "Sketchfab_Scene",
      "nodes": [
        0
      ]
    }
  ],
  "textures": [
    {
      "sampler": 0,
      "source": 0
    }
  ]
}
