{
  "accessors": [
    {
      "bufferView": 2,
      "componentType": 5126,
      "count": 5678,
      "max": [
        2.51313853263855,
        1.0,
        4.433594703674316
      ],
      "min": [
        -1.2288596630096436,
        -8.178837776184082,
        -2.373183250427246
      ],
      "type": "VEC3"
    },
    {
      "bufferView": 2,
      "byteOffset": 68136,
      "componentType": 5126,
      "count": 5678,
      "max": [
        1.0,
        1.0,
        1.0
      ],
      "min": [
        -1.0,
        -1.0,
        -1.0
      ],
      "type": "VEC3"
    },
    {
      "bufferView": 1,
      "componentType": 5126,
      "count": 5678,
      "max": [
        0.5610336661338806,
        0.9977100491523743
      ],
      "min": [
        0.0014782070647925138,
        0.0022902488708496094
      ],
      "type": "VEC2"
    },
    {
      "bufferView": 1,
      "byteOffset": 45424,
      "componentType": 5126,
      "count": 5678,
      "max": [
        0.5610336661338806,
        0.9977100491523743
      ],
      "min": [
        0.0014782070647925138,
        0.0022902488708496094
      ],
      "type": "VEC2"
    },
    {
      "bufferView": 1,
      "byteOffset": 90848,
      "componentType": 5126,
      "count": 5678,
      "max": [
        0.5610336661338806,
        0.9977100491523743
      ],
      "min": [
        0.0014782070647925138,
        0.0022902488708496094
      ],
      "type": "VEC2"
    },
    {
      "bufferView": 1,
      "byteOffset": 136272,
      "componentType": 5126,
      "count": 5678,
      "max": [
        0.5610336661338806,
        0.9977100491523743
      ],
      "min": [
        0.0014782070647925138,
        0.0022902488708496094
      ],
      "type": "VEC2"
    },
    {
      "bufferView": 0,
      "componentType": 5125,
      "count": 8532,
      "type": "SCALAR"
    }
  ],
  "asset": {
    "extras": {
      "author": "Zach.Harris1 (https://sketchfab.com/Zach.Harris1)",
      "license": "CC-BY-4.0 (http://creativecommons.org/licenses/by/4.0/)",
      "source": "https://sketchfab.com/3d-models/dedsec-monitors-712bf7b386d940ad9f8554254a22e583",
      "title": "DEDSEC Monitors"
    },
    "generator": "Sketchfab-12.66.0",
    "version": "2.0"
  },
  "bufferViews": [
    {
      "buffer": 0,
      "byteLength": 34128,
      "name": "floatBufferViews",
      "target": 34963
    },
    {
      "buffer": 0,
      "byteLength": 181696,
      "byteOffset": 34128,
      "byteStride": 8,
      "name": "floatBufferViews",
      "target": 34962
    },
    {
      "buffer": 0,
      "byteLength": 136272,
      "byteOffset": 215824,
      "byteStride": 12,
      "name": "floatBufferViews",
      "target": 34962
    }
  ],
  "buffers": [
    {
      "byteLength": 352096,
      "uri": "scene.bin"
    }
  ],
  "images": [
    {
      "uri": "textures/Monitors_Bake1_baked_baseColor.png"
    },
    {
      "uri": "textures/Monitors_Bake1_baked_metallicRoughness.png"
    },
    {
      "uri": "textures/Monitors_Bake1_baked_emissive.png"
    }
  ],
  "materials": [
    {
      "doubleSided": true,
      "emissiveFactor": [
        1.0,
        1.0,
        1.0
      ],
      "emissiveTexture": {
        "index": 2
      },
      "name": "Monitors_Bake1_baked",
      "pbrMetallicRoughness": {
        "baseColorTexture": {
          "index": 0
        },
        "metallicFactor": 0.0,
        "metallicRoughnessTexture": {
          "index": 1
        }
      }
    }
  ],
  "meshes": [
    {
      "name": "Object_0",
      "primitives": [
        {
          "attributes": {
            "NORMAL": 1,
            "POSITION": 0,
            "TEXCOORD_0": 2,
            "TEXCOORD_1": 3,
            "TEXCOORD_2": 4,
            "TEXCOORD_3": 5
          },
          "indices": 6,
          "material": 0,
          "mode": 4
        }
      ]
    }
  ],
  "nodes": [
    {
      "children": [
        1
      ],
      "matrix": [
        1.0,
        0.0,
        0.0,
        0.0,
        0.0,
        2.220446049250313e-16,
        -1.0,
        0.0,
        0.0,
        1.0,
        2.220446049250313e-16,
        0.0,
        0.0,
        0.0,
        0.0,
        1.0
      ],
      "name": "Sketchfab_model"
    },
    {
      "children": [
        2
      ],
      "name": "root"
    },
    {
      "children": [
        3
      ],
      "matrix": [
        1.0,
        0.0,
        0.0,
        0.0,
        0.0,
        2.220446049250313e-16,
        1.0,
        0.0,
        0.0,
        -1.0,
        2.220446049250313e-16,
        0.0,
        0.0,
        0.0,
        0.0,
        1.0
      ],
      "name": "GLTF_SceneRootNode"
    },
    {
      "children": [
        4
      ],
      "matrix": [
        -0.08630522610665152,
        0.0,
        0.17697965001008692,
        0.0,
        0.0,
        0.1303638368844986,
        0.0,
        0.0,
        -0.17697965001008692,
        0.0,
        -0.08630522610665152,
        0.0,
        0.21872937679290771,
        1.057353138923645,
        0.008180618286132813,
        1.0
      ],
      "name": "Monitors_Baked_0"
    },
    {
      "mesh": 0,
      "name": "Object_4"
    }
  ],
  "samplers": [
    {
      "magFilter": 9729,
      "minFilter": 9987,
      "wrapS": 10497,
      "wrapT": 10497
    }
  ],
  "scene": 0,
  "scenes": [
    {
      "name": "Sketchfab_Scene",
      "nodes": [
        0
      ]
    }
  ],
  "textures": [
    {
      "sampler": 0,
      "source": 0
    },
    {
      "sampler": 0,
      "source": 1
    },
    {
      "sampler": 0,
      "source": 2
    }
  ]
}
